<svg width="12" height="12" viewBox="0 0 12 12" fill="none" xmlns="http://www.w3.org/2000/svg">
<path d="M6.98333 1.83455C6.98333 1.57376 6.87973 1.32364 6.69532 1.13923C6.51091 0.954822 6.2608 0.851221 6 0.851221C5.7392 0.851221 5.48909 0.954822 5.30468 1.13923C5.12027 1.32364 5.01667 1.57376 5.01667 1.83455V5.01789H1.83333C1.57254 5.01789 1.32242 5.12149 1.13801 5.3059C0.953601 5.49031 0.85 5.74042 0.85 6.00122C0.85 6.26202 0.953601 6.51213 1.13801 6.69654C1.32242 6.88095 1.57254 6.98455 1.83333 6.98455H5.01667V10.1679C5.01667 10.4287 5.12027 10.6788 5.30468 10.8632C5.48909 11.0476 5.7392 11.1512 6 11.1512C6.2608 11.1512 6.51091 11.0476 6.69532 10.8632C6.87973 10.6788 6.98333 10.4287 6.98333 10.1679V6.98455H10.1667C10.4275 6.98455 10.6776 6.88095 10.862 6.69654C11.0464 6.51213 11.15 6.26202 11.15 6.00122C11.15 5.74042 11.0464 5.49031 10.862 5.3059C10.6776 5.12149 10.4275 5.01789 10.1667 5.01789H6.98333V1.83455Z" fill="white" stroke="white" stroke-width="0.3"/>
</svg>
