<svg width="24" height="24" viewBox="0 0 24 24" fill="none" xmlns="http://www.w3.org/2000/svg">
<path d="M11.8485 5.85077L11.8485 5.85075C12.0734 5.62572 12.1998 5.32055 12.1998 5.00235C12.1998 4.68415 12.0734 4.37898 11.8485 4.15395L11.8484 4.15391C11.6234 3.92894 11.3182 3.80256 11 3.80256C10.6818 3.80256 10.3767 3.92894 10.1516 4.15391L10.1516 4.15393L3.15161 11.1539L3.15159 11.154C2.92662 11.379 2.80024 11.6842 2.80024 12.0023C2.80024 12.3205 2.92662 12.6257 3.15159 12.8507L3.15161 12.8508L10.1516 19.8508L10.1516 19.8508L10.1541 19.8532C10.3804 20.0718 10.6835 20.1928 10.9982 20.19C11.3128 20.1873 11.6138 20.0611 11.8363 19.8386C12.0588 19.6161 12.185 19.3151 12.1877 19.0005C12.1904 18.6859 12.0695 18.3827 11.8509 18.1564L11.8509 18.1564L11.8485 18.1539L6.89687 13.2023H20C20.3183 13.2023 20.6235 13.0759 20.8486 12.8509C21.0736 12.6258 21.2 12.3206 21.2 12.0023C21.2 11.6841 21.0736 11.3789 20.8486 11.1538C20.6235 10.9288 20.3183 10.8024 20 10.8024H6.89687L11.8485 5.85077Z" fill="white" stroke="white" stroke-width="0.4"/>
</svg>
