<svg width="26" height="26" viewBox="0 0 26 26" fill="none" xmlns="http://www.w3.org/2000/svg">
<path fill-rule="evenodd" clip-rule="evenodd" d="M13 4.33338C12.1821 4.33345 11.3854 4.59385 10.7253 5.07687C10.0653 5.55989 9.57608 6.24047 9.32858 7.02004L8.46192 9.75004H17.5381L16.6714 7.02004C16.4239 6.24047 15.9347 5.55989 15.2747 5.07687C14.6146 4.59385 13.8179 4.33345 13 4.33338ZM19.8109 9.75004L18.7363 6.36463C18.3498 5.14639 17.5856 4.08282 16.5543 3.32798C15.5229 2.57315 14.2781 2.16626 13 2.16626C11.7219 2.16626 10.4771 2.57315 9.44575 3.32798C8.41442 4.08282 7.65018 5.14639 7.26375 6.36463L6.18908 9.75004H3.627C3.28873 9.75005 2.95516 9.82927 2.65301 9.98134C2.35085 10.1334 2.08849 10.3541 1.88695 10.6258C1.68541 10.8975 1.55027 11.2126 1.49237 11.5458C1.43447 11.8791 1.4554 12.2213 1.5535 12.545L2.77117 16.5642L4.27483 21.5259C4.47708 22.1933 4.88864 22.778 5.44872 23.1935C6.00881 23.609 6.68769 23.8334 7.38508 23.8334H18.6149C19.3121 23.8331 19.9908 23.6087 20.5506 23.1932C21.1105 22.7777 21.5219 22.1931 21.7241 21.5259L23.2288 16.5642L24.4465 12.545C24.5446 12.2213 24.5655 11.8791 24.5076 11.5458C24.4497 11.2126 24.3146 10.8975 24.1131 10.6258C23.9115 10.3541 23.6492 10.1334 23.347 9.98134C23.0448 9.82927 22.7113 9.75005 22.373 9.75004H19.8109ZM6.981 11.9167H3.627L4.61175 15.1667H8.70675L8.26258 11.9167H6.981ZM10.4498 11.9167L10.8929 15.1667H15.1071L15.5513 11.9167H10.4488H10.4498ZM17.7374 11.9167L17.2933 15.1667H21.3883L22.373 11.9167H17.7374ZM20.7317 17.3334H16.9975L16.4071 21.6667H18.6138C18.8463 21.6667 19.0726 21.5919 19.2593 21.4534C19.446 21.3149 19.5832 21.12 19.6506 20.8975L20.7307 17.3334H20.7317ZM14.2209 21.6667L14.8113 17.3334H11.1876L11.7791 21.6667H14.2209ZM9.59183 21.6667L9.00142 17.3334H5.26825L6.34833 20.8975C6.41575 21.12 6.55294 21.3149 6.73963 21.4534C6.92632 21.5919 7.15262 21.6667 7.38508 21.6667H9.59183Z" fill="white"/>
</svg>
