  <svg width="20" height="16" viewBox="0 0 20 16" fill="none" xmlns="http://www.w3.org/2000/svg">
<path d="M1.11612 1.11612C0.881696 1.35054 0.75 1.66848 0.75 2C0.75 2.33152 0.881696 2.64946 1.11612 2.88388C1.35054 3.1183 1.66848 3.25 2 3.25H18C18.3315 3.25 18.6495 3.1183 18.8839 2.88388C19.1183 2.64946 19.25 2.33152 19.25 2C19.25 1.66848 19.1183 1.35054 18.8839 1.11612C18.6495 0.881696 18.3315 0.75 18 0.75H2C1.66848 0.75 1.35054 0.881696 1.11612 1.11612ZM4.11612 7.11612C3.8817 7.35054 3.75 7.66848 3.75 8C3.75 8.33152 3.8817 8.64946 4.11612 8.88388C4.35054 9.1183 4.66848 9.25 5 9.25H15C15.3315 9.25 15.6495 9.1183 15.8839 8.88388C16.1183 8.64946 16.25 8.33152 16.25 8C16.25 7.66848 16.1183 7.35054 15.8839 7.11612C15.6495 6.8817 15.3315 6.75 15 6.75H5C4.66848 6.75 4.35054 6.8817 4.11612 7.11612ZM7.11612 13.1161C6.8817 13.3505 6.75 13.6685 6.75 14C6.75 14.3315 6.8817 14.6495 7.11612 14.8839C7.35054 15.1183 7.66848 15.25 8 15.25H12C12.3315 15.25 12.6495 15.1183 12.8839 14.8839C13.1183 14.6495 13.25 14.3315 13.25 14C13.25 13.6685 13.1183 13.3505 12.8839 13.1161C12.6495 12.8817 12.3315 12.75 12 12.75H8C7.66848 12.75 7.35054 12.8817 7.11612 13.1161Z" fill="white" stroke="white" stroke-width="0.5"/>
</svg>
