<svg width="20" height="24" viewBox="0 0 20 24" fill="none" xmlns="http://www.w3.org/2000/svg">
<path d="M18.2112 10.1056C18.2112 16.41 10.1056 21.8137 10.1056 21.8137C10.1056 21.8137 2 16.41 2 10.1056C2 7.95588 2.85398 5.89418 4.37408 4.37408C5.89418 2.85398 7.95588 2 10.1056 2C12.2554 2 14.3171 2.85398 15.8372 4.37408C17.3573 5.89418 18.2112 7.95588 18.2112 10.1056Z" stroke="#2C62B2" stroke-width="2.4" stroke-linecap="round" stroke-linejoin="round"/>
<path d="M10.1056 12.8076C11.5978 12.8076 12.8075 11.5979 12.8075 10.1057C12.8075 8.61348 11.5978 7.40381 10.1056 7.40381C8.61342 7.40381 7.40375 8.61348 7.40375 10.1057C7.40375 11.5979 8.61342 12.8076 10.1056 12.8076Z" stroke="#2C62B2" stroke-width="2.4" stroke-linecap="round" stroke-linejoin="round"/>
</svg>
