<svg width="24" height="24" viewBox="0 0 24 24" fill="none" xmlns="http://www.w3.org/2000/svg">
<path d="M6.80157 12.7462C6.89956 12.5096 6.95 12.2561 6.95 12C6.95 11.4828 6.74455 10.9868 6.37886 10.6211C6.01316 10.2554 5.51717 10.05 5 10.05C4.48283 10.05 3.98684 10.2554 3.62114 10.6211C3.25545 10.9868 3.05 11.4828 3.05 12C3.05 12.2561 3.10044 12.5096 3.19843 12.7462C3.29643 12.9828 3.44007 13.1978 3.62114 13.3789C3.80222 13.5599 4.01718 13.7036 4.25377 13.8016C4.49035 13.8996 4.74392 13.95 5 13.95C5.25608 13.95 5.50965 13.8996 5.74623 13.8016C5.98282 13.7036 6.19778 13.5599 6.37886 13.3789C6.55993 13.1978 6.70357 12.9828 6.80157 12.7462ZM20.3789 13.3789C20.7446 13.0132 20.95 12.5172 20.95 12C20.95 11.4828 20.7446 10.9868 20.3789 10.6211C20.0132 10.2554 19.5172 10.05 19 10.05C18.4828 10.05 17.9868 10.2554 17.6211 10.6211C17.2554 10.9868 17.05 11.4828 17.05 12C17.05 12.5172 17.2554 13.0132 17.6211 13.3789C17.9868 13.7446 18.4828 13.95 19 13.95C19.5172 13.95 20.0132 13.7446 20.3789 13.3789ZM12 13.95C12.5172 13.95 13.0132 13.7446 13.3789 13.3789C13.7446 13.0132 13.95 12.5172 13.95 12C13.95 11.4828 13.7446 10.9868 13.3789 10.6211C13.0132 10.2554 12.5172 10.05 12 10.05C11.4828 10.05 10.9868 10.2554 10.6211 10.6211C10.2554 10.9868 10.05 11.4828 10.05 12C10.05 12.5172 10.2554 13.0132 10.6211 13.3789C10.9868 13.7446 11.4828 13.95 12 13.95Z" fill="white" stroke="white" stroke-width="0.4"/>
</svg>
