<svg width="20" height="20" viewBox="0 0 20 20" fill="none" xmlns="http://www.w3.org/2000/svg">
<path d="M17.29 15.29L16 14V9C16 5.93 14.36 3.36 11.5 2.68V2C11.5 1.17 10.83 0.5 9.99999 0.5C9.16999 0.5 8.49999 1.17 8.49999 2V2.68C5.62999 3.36 3.99999 5.92 3.99999 9V14L2.70999 15.29C2.07999 15.92 2.51999 17 3.40999 17H16.58C17.48 17 17.92 15.92 17.29 15.29ZM14 15H5.99999V9C5.99999 6.52 7.50999 4.5 9.99999 4.5C12.49 4.5 14 6.52 14 9V15ZM9.99999 20C11.1 20 12 19.1 12 18H7.99999C7.99999 19.1 8.88999 20 9.99999 20Z" fill="white"/>
</svg>
