<svg width="26" height="24" viewBox="0 0 26 24" fill="none" xmlns="http://www.w3.org/2000/svg">
<path d="M13.847 5.83516C17.9759 5.75516 21.4804 8.86101 22.0259 12.8995H22.481H22.481C22.5611 12.8995 22.6393 12.8755 22.7056 12.8306C22.7718 12.7857 22.8231 12.722 22.8527 12.6476C22.8824 12.5733 22.889 12.4917 22.8718 12.4136C22.8546 12.3354 22.8143 12.2642 22.7562 12.2091L22.7562 12.2091L22.6412 12.1001L22.6401 12.099C22.4338 11.8972 22.3151 11.6223 22.3096 11.3338C22.3041 11.0452 22.4122 10.7661 22.6107 10.5565C22.8091 10.3469 23.082 10.2238 23.3704 10.2136C23.6589 10.2033 23.9398 10.3069 24.1526 10.5019L24.1538 10.503L24.2687 10.612L13.847 5.83516ZM13.847 5.83516C13.4861 4.89763 12.7999 3.99649 11.9545 3.29751C11.0893 2.58219 10.0504 2.07279 9.01111 1.95664L9.01097 1.95662C8.71493 1.92396 8.41695 1.92202 8.12531 1.92202L8.12563 1.92202L8.125 2.02202V1.92202L13.847 5.83516ZM4.66466 17.2218L4.66461 17.2217C3.82963 16.6054 2.76222 16.1867 1.88337 16.0928C1.61343 16.064 1.36367 15.9364 1.18213 15.7346C1.00059 15.5327 0.900099 15.2709 0.9 14.9994L0.9 14.9994L0.9 10.9996V10.9995C0.900109 10.7953 0.957072 10.5952 1.06451 10.4215C1.17194 10.2478 1.32559 10.1075 1.50826 10.0162C1.50827 10.0162 1.50829 10.0162 1.5083 10.0162L3.08967 9.22504C3.75966 7.40968 5.39088 6.37208 6.9 6.02938L4.66466 17.2218ZM4.66466 17.2218C5.53342 17.8622 5.9 18.5181 5.9 18.9992V21.9991C5.9 22.2908 6.01589 22.5706 6.22218 22.7768C6.42847 22.9831 6.70826 23.099 7 23.099H9.99998C10.2309 23.0991 10.4561 23.0264 10.6434 22.8914C10.8308 22.7563 10.9709 22.5658 11.0439 22.3466L11.4109 21.2447C11.522 20.9111 11.7353 20.621 12.0205 20.4154C12.3057 20.2098 12.6484 20.0992 13 20.0992C13.3516 20.0992 13.6943 20.2098 13.9795 20.4154C14.2647 20.621 14.478 20.9111 14.5891 21.2447L14.9561 22.3466C15.0291 22.5658 15.1692 22.7563 15.3566 22.8914C15.5439 23.0264 15.7691 23.0991 16 23.099H19C19.2917 23.099 19.5715 22.9831 19.7778 22.7768C19.9841 22.5706 20.1 22.2908 20.1 21.9991V18.4545C21.0335 17.5135 21.7441 16.4336 21.9974 15.0994H22.481C24.8323 15.0994 25.9764 12.2282 24.2688 10.612L4.66466 17.2218ZM8.1 20.8991V18.9992C8.1 17.4799 7.056 16.252 5.97037 15.4509L5.96999 15.4506C5.10698 14.8202 4.13339 14.3577 3.1 14.0869V11.6793L4.49171 10.983C4.63367 10.9121 4.75859 10.8112 4.85789 10.6874C4.95718 10.5637 5.02851 10.4199 5.067 10.2659C5.4131 8.88544 6.85952 8.09973 8 8.09973C8.29174 8.09973 8.57153 7.98384 8.77782 7.77756C8.98411 7.57128 9.1 7.29151 9.1 6.99978V4.21429C9.67115 4.39702 10.3201 4.75562 10.8509 5.2276C11.4219 5.73535 11.8434 6.36259 11.9002 7.02981C11.9058 7.17999 11.9419 7.32747 12.0062 7.4633C12.0709 7.59988 12.1629 7.72182 12.2763 7.82163C12.3898 7.92143 12.5225 7.99701 12.6663 8.04373C12.81 8.09044 12.9618 8.10731 13.1123 8.0933L13.1129 8.09323L13.393 8.06524L13.3933 8.0652C16.8601 7.70743 19.9 10.4877 19.9 13.9994C19.9 14.9878 19.5076 15.9372 18.8085 16.6354C18.7442 16.699 18.6788 16.7615 18.6122 16.8228L18.6119 16.8231L18.6015 16.8328C18.2832 17.1286 17.9 17.4849 17.9 17.9992V20.8991H16.7922L16.6759 20.5486L16.6759 20.5485C16.4185 19.7772 15.9251 19.1063 15.2654 18.631C14.6057 18.1556 13.8131 17.8998 13 17.8998C12.1869 17.8998 11.3943 18.1556 10.7346 18.631C10.0749 19.1063 9.58148 19.7771 9.32415 20.5484C9.32415 20.5484 9.32414 20.5485 9.32414 20.5485L9.20698 20.8991H8.1ZM1 14.9994V10.9996L1.894 15.9933C1.64859 15.9672 1.42152 15.8512 1.25648 15.6677C1.09144 15.4842 1.00009 15.2462 1 14.9994ZM8.5 13.0995C8.92434 13.0995 9.33131 12.9309 9.63137 12.6309C9.93143 12.3308 10.1 11.9239 10.1 11.4996C10.1 11.0752 9.93143 10.6683 9.63137 10.3682C9.33131 10.0682 8.92435 9.89963 8.5 9.89963C8.07565 9.89963 7.66869 10.0682 7.36863 10.3682C7.06857 10.6683 6.9 11.0752 6.9 11.4996C6.9 11.9239 7.06857 12.3308 7.36863 12.6309C7.66869 12.9309 8.07566 13.0995 8.5 13.0995Z" fill="url(#paint0_linear_1_125)" stroke="url(#paint1_linear_1_125)" stroke-width="0.2"/>
<defs>
<linearGradient id="paint0_linear_1_125" x1="12.9933" y1="2.02002" x2="12.9933" y2="22.999" gradientUnits="userSpaceOnUse">
<stop stop-color="#267DFF"/>
<stop offset="1" stop-color="#0F0F0F"/>
</linearGradient>
<linearGradient id="paint1_linear_1_125" x1="12.9933" y1="2.02002" x2="12.9933" y2="22.999" gradientUnits="userSpaceOnUse">
<stop stop-color="#267DFF"/>
<stop offset="1" stop-color="#0F0F0F"/>
</linearGradient>
</defs>
</svg>
